<?xml version="1.0" encoding="utf-8"?>
<!-- Generator: Adobe Illustrator 25.0.1, SVG Export Plug-In . SVG Version: 6.00 Build 0)  -->
<svg version="1.1" id="Layer_1" xmlns="http://www.w3.org/2000/svg" xmlns:xlink="http://www.w3.org/1999/xlink" x="0px" y="0px"
	 viewBox="0 0 248 248" style="enable-background:new 0 0 248 248;" xml:space="preserve">
<style type="text/css">
	.st0{filter:url(#Adobe_OpacityMaskFilter);}
	.st1{fill-rule:evenodd;clip-rule:evenodd;fill:#FFFFFF;}
	.st2{mask:url(#mask-2_2_);enable-background:new    ;}
	.st3{fill-rule:evenodd;clip-rule:evenodd;fill:#003FA8;}
</style>
<desc>Created with Sketch.</desc>
<g id="Page-1">
	<g id="Logo">
		<defs>
			<filter id="Adobe_OpacityMaskFilter" filterUnits="userSpaceOnUse" x="45.8" y="78" width="160.3" height="91.6">
				<feColorMatrix  type="matrix" values="1 0 0 0 0  0 1 0 0 0  0 0 1 0 0  0 0 0 1 0"/>
			</filter>
		</defs>
		<mask maskUnits="userSpaceOnUse" x="45.8" y="78" width="160.3" height="91.6" id="mask-2_2_">
			<g class="st0">
				<path id="path-1_3_" class="st1" d="M-12.3-79.5h276.5c36.4,0,65.8,29.5,65.8,65.8v276.5c0,36.4-29.5,65.8-65.8,65.8H-12.3
					c-36.4,0-65.8-29.5-65.8-65.8V-13.6C-78.1-50-48.6-79.5-12.3-79.5z"/>
			</g>
		</mask>
		<g class="st2">
			<g style="enable-background:new    ;">
				
					<image style="overflow:visible;" width="3849" height="2200" id="Bitmap" xlink:href="../../../../Downloads/logos/799AC8E4933C1D5B.png"  transform="matrix(4.164935e-02 0 0 4.164935e-02 45.8458 78)">
				</image>
			</g>
		</g>
		<path id="Combined-Shape" class="st3" d="M124,215.1l3.9,11l11.6,0.2l-9.2,7l3.2,11.1l-9.5-6.6l-9.5,6.6l3.2-11.1l-9.2-7l11.6-0.2
			L124,215.1z M71.5,200.1l3.9,11l11.6,0.2l-9.2,7l3.2,11.1l-9.5-6.6l-9.5,6.6l3.2-11.1l-9.2-7l11.6-0.2L71.5,200.1z M176.5,200.1
			l3.9,11l11.6,0.2l-9.2,7l3.2,11.1l-9.5-6.6l-9.5,6.6l3.2-11.1l-9.2-7l11.6-0.2L176.5,200.1z M215.2,162.7l3.9,11l11.6,0.2l-9.2,7
			l3.2,11.1l-9.5-6.6l-9.5,6.6l3.2-11.1l-9.2-7l11.6-0.2L215.2,162.7z M32.8,162.7l3.9,11l11.6,0.2l-9.2,7l3.2,11.1l-9.5-6.6
			l-9.5,6.6l3.2-11.1l-9.2-7l11.6-0.2L32.8,162.7z M19.1,110.2l3.9,11l11.6,0.2l-9.2,7l3.2,11.1l-9.5-6.6l-9.5,6.6l3.2-11.1l-9.2-7
			l11.6-0.2L19.1,110.2z M228.9,110.2l3.9,11l11.6,0.2l-9.2,7l3.2,11.1l-9.5-6.6l-9.5,6.6l3.2-11.1l-9.2-7l11.6-0.2L228.9,110.2z
			 M215.2,57.7l3.9,11l11.6,0.2l-9.2,7l3.2,11.1l-9.5-6.6l-9.5,6.6L209,76l-9.2-7l11.6-0.2L215.2,57.7z M32.8,57.7l3.9,11L48.3,69
			L39,76l3.2,11.1l-9.5-6.5l-9.5,6.6l3.2-11.1L17.3,69l11.6-0.2L32.8,57.7z M71.5,19l3.9,11L87,30.2l-9.2,7L81,48.4l-9.5-6.5
			L62,48.5l3.2-11.1L56,30.2L67.7,30L71.5,19z M176.5,19l3.9,11l11.6,0.2l-9.2,7l3.2,11.1l-9.5-6.6l-9.5,6.6l3.2-11.1l-9.2-7
			l11.6-0.2L176.5,19z M124,4l3.9,11l11.6,0.2l-9.2,7l3.2,11.1l-9.5-6.6l-9.5,6.6l3.2-11.1l-9.2-7l11.6-0.2L124,4z"/>
	</g>
</g>
</svg>
